<svg width="130" height="133" viewBox="0 0 130 133" xmlns="http://www.w3.org/2000/svg">
<path fill-rule="evenodd" clip-rule="evenodd" d="M0 0V113C0 124.046 8.95431 133 20 133H79C90.0457 133 99 124.046 99 113V101H110C121.046 101 130 92.0457 130 81V47C130 35.9543 121.046 27 110 27H99V0H51.8563L62.0953 21.2977L50.8463 53.2919L52.2726 61.2676L42.6088 52.3716L52.604 27.5976L34.8841 0H0ZM99 37V91H110C115.523 91 120 86.5228 120 81V47C120 41.4772 115.523 37 110 37H99ZM89 10H67.7595L72.9047 20.7023L61.1537 54.1241L67.3432 88.7324L30.7472 55.0444L41.396 28.6504L29.421 10H10V110H89V10ZM86.1414 120H12.8586C14.6735 121.851 17.2026 123 20 123H79C81.7974 123 84.3265 121.851 86.1414 120Z" />
</svg>
