<svg width="314" height="246" viewBox="0 0 314 246" fill="none" xmlns="http://www.w3.org/2000/svg">
<path fill-rule="evenodd" clip-rule="evenodd" d="M178.146 91.2167L182.131 98.2508C183.18 100.103 184.801 101.565 186.751 102.42C191.617 104.552 197.298 102.443 199.594 97.6512L200.145 96.5C201.002 94.7131 201.367 92.7307 201.205 90.756L200.746 85.1611L242.237 74.0436L268.636 172.568L191.362 193.274L164.963 94.7491L178.146 91.2167Z" fill="#F7BD19"/>
<path fill-rule="evenodd" clip-rule="evenodd" d="M178.722 40.745C181.891 35.6018 187.89 32.9296 193.833 34.0145C197.578 34.6983 200.91 36.8126 203.124 39.91L204.009 41.1473C206.766 45.005 211.713 46.6192 216.215 45.1302L225.185 42.1634C229.343 40.788 233.856 40.9438 237.91 42.6026C254.19 49.2646 252.698 72.7933 235.707 77.346L205.604 85.4123L205.93 89.3807C206.164 92.239 205.635 95.1083 204.396 97.6946L203.844 98.8458C200.384 106.068 191.821 109.247 184.485 106.034C181.547 104.746 179.103 102.541 177.522 99.7496L174.171 93.8348L167.934 95.5058C161.39 97.2593 154.476 94.4622 150.992 88.6515C149.373 85.9508 148.634 82.8132 148.878 79.6738L149.023 77.8069C149.283 74.4592 150.34 71.2223 152.106 68.3667L155.378 63.0763C156.159 61.8136 157.108 60.6627 158.198 59.6547L160.392 57.6254C164.67 53.6698 171.073 53.1397 175.933 56.2915L175.465 52.6436C175.011 49.1018 175.786 45.5115 177.658 42.4714L178.722 40.745ZM192.037 43.8519C190.149 43.5072 188.243 44.3562 187.236 45.9903L186.172 47.7166C185.499 48.8092 185.221 50.0995 185.384 51.3723L185.903 55.417C186.984 63.8549 177.554 69.5818 170.566 64.7311C169.522 64.0065 168.114 64.1049 167.181 64.9676L164.987 66.997C164.56 67.3915 164.189 67.842 163.883 68.3363L160.611 73.6267C159.684 75.1254 159.129 76.8241 158.993 78.581L158.848 80.4479C158.765 81.5185 159.017 82.5883 159.569 83.5093C160.757 85.4907 163.114 86.4445 165.346 85.8466L179.057 82.1728L186.222 94.8202C186.739 95.7326 187.538 96.4532 188.498 96.8741C190.896 97.9245 193.695 96.8854 194.826 94.5247L195.378 93.3736C195.851 92.3861 196.053 91.2906 195.963 90.1993L194.954 77.9131L233.119 67.6868C240.86 65.6126 241.54 54.8929 234.123 51.8577C232.276 51.1019 230.22 51.0309 228.325 51.6576L219.356 54.6243C210.695 57.4889 201.178 54.3836 195.873 46.9622L194.989 45.725C194.286 44.7409 193.227 44.0692 192.037 43.8519Z" fill="black"/>
<path fill-rule="evenodd" clip-rule="evenodd" d="M162.892 87.0217L190.845 191.342C192.989 199.344 201.214 204.092 209.216 201.948L256.546 189.266C264.548 187.122 269.297 178.897 267.153 170.895L239.2 66.575L248.859 63.9868L276.812 168.307C280.385 181.643 272.471 195.352 259.134 198.925L211.804 211.608C198.467 215.181 184.759 207.267 181.185 193.93L153.233 89.6099L162.892 87.0217Z" fill="black"/>
<path fill-rule="evenodd" clip-rule="evenodd" d="M276.054 180.933L189.121 204.227L186.533 194.568L273.466 171.274L276.054 180.933Z" fill="black"/>
<path d="M182.835 118.948C182.12 116.281 183.703 113.539 186.37 112.824C189.038 112.11 191.779 113.693 192.494 116.36L207.247 171.418C207.961 174.085 206.378 176.827 203.711 177.541C201.044 178.256 198.302 176.673 197.587 174.006L182.835 118.948Z" fill="black"/>
<path d="M206.017 112.736C205.302 110.069 206.885 107.327 209.552 106.613C212.22 105.898 214.961 107.481 215.676 110.148L230.429 165.206C231.144 167.873 229.561 170.615 226.893 171.33C224.226 172.044 221.484 170.461 220.77 167.794L206.017 112.736Z" fill="black"/>
<path d="M229.199 106.525C228.484 103.857 230.067 101.116 232.735 100.401C235.402 99.6863 238.144 101.269 238.858 103.937L253.611 158.994C254.326 161.662 252.743 164.403 250.076 165.118C247.408 165.833 244.667 164.25 243.952 161.583L229.199 106.525Z" fill="black"/>
<path fill-rule="evenodd" clip-rule="evenodd" d="M269.061 96.8791L258.436 99.7261L272.412 151.886L283.037 149.039C288.372 147.61 291.538 142.126 290.108 136.792L281.308 103.95C279.879 98.6155 274.396 95.4497 269.061 96.8791ZM246.188 92.655L265.341 164.134L285.625 158.698C296.295 155.84 302.626 144.873 299.767 134.203L290.968 101.362C288.109 90.6926 277.142 84.361 266.473 87.2198L246.188 92.655Z" fill="black"/>
<path fill-rule="evenodd" clip-rule="evenodd" d="M135.08 118.338L131.095 125.372C130.046 127.224 128.425 128.686 126.475 129.541C121.609 131.673 115.928 129.564 113.632 124.772L113.081 123.621C112.224 121.834 111.859 119.852 112.021 117.877L112.48 112.282L70.9895 101.165L44.5899 199.689L121.864 220.394L148.264 121.87L135.08 118.338Z" fill="#F7BD19"/>
<path fill-rule="evenodd" clip-rule="evenodd" d="M119.393 61.1354C125.336 60.0505 131.335 62.7227 134.504 67.8658L135.568 69.5922C137.441 72.6323 138.215 76.2227 137.761 79.7645L137.293 83.4124C142.153 80.2606 148.556 80.7907 152.834 84.7463L155.029 86.7756C156.119 87.7835 157.067 88.9345 157.848 90.1971L161.12 95.4875C162.886 98.3432 163.943 101.58 164.203 104.928L164.348 106.795C164.592 109.934 163.853 113.072 162.234 115.772C161.425 117.121 160.432 118.307 159.302 119.311L132.041 221.051C128.467 234.387 114.759 242.302 101.422 238.728L54.0919 226.046C40.7553 222.473 32.8407 208.764 36.4142 195.428L38.226 188.666L27.6008 185.819C16.9315 182.96 10.5998 171.994 13.4586 161.324L22.2585 128.483C25.1173 117.814 36.0841 111.482 46.7534 114.341L57.3786 117.188L64.3667 91.1077L64.4266 91.1238C62.4719 82.9557 65.9578 73.553 75.3159 69.7235C79.3696 68.0646 83.8827 67.9089 88.0411 69.2843L97.0107 72.251C101.513 73.7401 106.46 72.1259 109.217 68.2681L110.102 67.0309C112.316 63.9335 115.648 61.8192 119.393 61.1354ZM71.8262 101.905C73.4733 103.014 75.3723 103.892 77.5186 104.467L107.622 112.533L107.296 116.502C107.062 119.36 107.591 122.229 108.83 124.816L109.382 125.967C112.842 133.189 121.405 136.368 128.741 133.154C131.68 131.867 134.123 129.662 135.704 126.871L139.055 120.956L145.292 122.627C146.17 122.862 147.054 123.015 147.937 123.09L122.382 218.463C122.206 219.118 121.99 219.751 121.736 220.36L45.6835 199.982C45.7687 199.327 45.898 198.671 46.0735 198.016L47.8852 191.254L67.0378 119.776L71.8262 101.905ZM125.99 73.1111C124.983 71.4771 123.077 70.6281 121.189 70.9728C119.999 71.19 118.941 71.8618 118.237 72.8459L117.353 74.0831C112.048 81.5045 102.531 84.6098 93.8705 81.7452L84.9008 78.7784C83.0063 78.1518 80.9501 78.2228 79.1033 78.9785C71.6862 82.0138 72.3658 92.7334 80.1068 94.8076L118.272 105.034L117.263 117.32C117.173 118.411 117.375 119.507 117.849 120.494L118.4 121.646C119.531 124.006 122.33 125.045 124.728 123.995C125.688 123.574 126.487 122.854 127.004 121.941L134.169 109.294L147.88 112.967C150.112 113.565 152.469 112.612 153.657 110.63C154.209 109.709 154.461 108.639 154.378 107.569L154.233 105.702C154.097 103.945 153.542 102.246 152.615 100.748L149.343 95.4572C149.037 94.9629 148.666 94.5124 148.239 94.1178L146.045 92.0885C145.112 91.2258 143.704 91.1274 142.66 91.852C135.672 96.7026 126.242 90.9758 127.323 82.5379L127.842 78.4931C128.005 77.2203 127.727 75.9301 127.054 74.8375L125.99 73.1111ZM54.7904 126.847L40.8142 179.007L30.189 176.16C24.8543 174.731 21.6885 169.247 23.1179 163.913L31.9178 131.071C33.3472 125.736 38.8305 122.571 44.1652 124L54.7904 126.847ZM113.482 228.501C110.572 229.672 107.273 229.943 104.01 229.069L56.6801 216.387C53.4177 215.513 50.6961 213.628 48.7618 211.16L113.482 228.501ZM130.391 146.069C131.106 143.402 129.523 140.66 126.856 139.945C124.189 139.231 121.447 140.813 120.732 143.481L105.979 198.539C105.265 201.206 106.848 203.948 109.515 204.662C112.182 205.377 114.924 203.794 115.639 201.127L130.391 146.069ZM103.674 133.734C106.341 134.448 107.924 137.19 107.209 139.857L92.4565 194.915C91.7418 197.582 89.0001 199.165 86.3328 198.451C83.6655 197.736 82.0825 194.994 82.7973 192.327L97.5499 137.269C98.2647 134.602 101.006 133.019 103.674 133.734ZM84.027 133.646C84.7417 130.978 83.1588 128.237 80.4914 127.522C77.8241 126.807 75.0824 128.39 74.3677 131.057L59.615 186.115C58.9003 188.783 60.4832 191.524 63.1506 192.239C65.8179 192.954 68.5596 191.371 69.2743 188.703L84.027 133.646Z" fill="black"/>
<rect x="98.4169" y="12.3523" width="10" height="41" transform="rotate(-26.363 98.4169 12.3523)" fill="black"/>
<rect x="133.625" y="1.34604" width="10" height="41" transform="rotate(-2.69503 133.625 1.34604)" fill="black"/>
<rect x="171.48" y="4" width="10" height="41" transform="rotate(29.9683 171.48 4)" fill="black"/>
</svg>
