<svg width="130" height="133" viewBox="0 0 130 133" xmlns="http://www.w3.org/2000/svg">
<rect x="10" y="63" width="80" height="47" fill="#F7BD19"/>
<path fill-rule="evenodd" clip-rule="evenodd" d="M89 10H10V113C10 118.523 14.4772 123 20 123H79C84.5228 123 89 118.523 89 113V10ZM0 0V113C0 124.046 8.95431 133 20 133H79C90.0457 133 99 124.046 99 113V0H0Z"  />
<path fill-rule="evenodd" clip-rule="evenodd" d="M95 120H5V110H95V120Z"  />
<path d="M21 36C21 33.2386 23.2386 31 26 31C28.7614 31 31 33.2386 31 36V93C31 95.7614 28.7614 98 26 98C23.2386 98 21 95.7614 21 93V36Z"  />
<path d="M45 36C45 33.2386 47.2386 31 50 31C52.7614 31 55 33.2386 55 36V93C55 95.7614 52.7614 98 50 98C47.2386 98 45 95.7614 45 93V36Z"  />
<path d="M69 36C69 33.2386 71.2386 31 74 31C76.7614 31 79 33.2386 79 36V93C79 95.7614 76.7614 98 74 98C71.2386 98 69 95.7614 69 93V36Z"  />
<path fill-rule="evenodd" clip-rule="evenodd" d="M110 37H99V91H110C115.523 91 120 86.5228 120 81V47C120 41.4772 115.523 37 110 37ZM89 27V101H110C121.046 101 130 92.0457 130 81V47C130 35.9543 121.046 27 110 27H89Z"  />
</svg>
