<svg viewBox="0 0 133 178" xmlns="http://www.w3.org/2000/svg">
<path fill-rule="evenodd" clip-rule="evenodd" d="M26.148 53L28.177 60.8259C28.7112 62.8864 29.8982 64.7186 31.5604 66.0484C35.7093 69.3675 41.7423 68.8005 45.2001 64.7664L46.0308 63.7972C47.3203 62.2928 48.1867 60.4726 48.5411 58.5232L49.5453 53H92.4999V155H12.4999V53H26.148Z" fill="#F7BD19"/>
<path d="M23.4999 81C23.4999 78.2386 25.7385 76 28.4999 76C31.2613 76 33.4999 78.2386 33.4999 81V138C33.4999 140.761 31.2613 143 28.4999 143C25.7385 143 23.4999 140.761 23.4999 138V81Z"  />
<path d="M52.4999 76C49.7385 76 47.4999 78.2386 47.4999 81V138C47.4999 140.761 49.7385 143 52.4999 143C55.2613 143 57.4999 140.761 57.4999 138V81C57.4999 78.2386 55.2613 76 52.4999 76Z"  />
<path d="M71.4999 81C71.4999 78.2386 73.7385 76 76.4999 76C79.2613 76 81.4999 78.2386 81.4999 81V138C81.4999 140.761 79.2613 143 76.4999 143C73.7385 143 71.4999 140.761 71.4999 138V81Z"  />
<path fill-rule="evenodd" clip-rule="evenodd" d="M56.1057 1.80703C50.6463 -0.778974 44.1596 0.249418 39.7678 4.3972L38.2937 5.78949C35.6977 8.24125 34.0207 11.5089 33.5426 15.0475L33.05 18.6921C29.1716 14.3899 22.8494 13.2447 17.6935 15.9583L15.0484 17.3505C13.7347 18.0419 12.5207 18.9082 11.4396 19.9257L6.90987 24.189C4.46477 26.4903 2.60582 29.3432 1.4883 32.5095L0.865086 34.2753C-0.182937 37.2447 -0.281224 40.4666 0.583851 43.4944C1.01576 45.006 1.66806 46.4088 2.49988 47.6717V153C2.49988 166.807 13.6928 178 27.4999 178H76.4999C90.307 178 101.5 166.807 101.5 153V146H112.5C123.546 146 132.5 137.046 132.5 126V92C132.5 80.9543 123.546 72 112.5 72H101.5V45H101.438C105.44 37.6162 104.506 27.6316 96.4583 21.5105C92.9721 18.859 88.6531 17.5405 84.2804 17.7928L74.8486 18.337C70.1145 18.6101 65.7537 15.7704 64.0887 11.3305L63.5548 9.90646C62.2179 6.34162 59.5464 3.43686 56.1057 1.80703ZM91.4999 53.4991C89.622 54.1435 87.5605 54.5 85.3384 54.5H54.1727L53.4604 58.4176C52.9474 61.2392 51.6934 63.8737 49.8271 66.0512L48.9963 67.0204C43.7844 73.101 34.6906 73.9557 28.4369 68.9528C25.9314 66.9484 24.1422 64.1866 23.3369 61.0807L21.6308 54.5H15.1744C14.2655 54.5 13.3713 54.4192 12.4999 54.2635V153C12.4999 153.678 12.5449 154.346 12.632 155H91.3677C91.4549 154.346 91.4999 153.678 91.4999 153V53.4991ZM46.6341 11.6673C48.0294 10.3495 50.0903 10.0228 51.8248 10.8444C52.918 11.3622 53.7667 12.2851 54.1915 13.4177L54.7255 14.8417C57.9285 23.3831 66.3175 28.8458 75.4245 28.3204L84.8564 27.7762C86.8486 27.6613 88.8163 28.262 90.4046 29.47C96.7834 34.3215 93.3525 44.5 85.3384 44.5H45.8269L43.6217 56.6287C43.4258 57.706 42.9471 58.7119 42.2345 59.5433L41.4037 60.5125C39.7002 62.4999 36.7279 62.7793 34.6838 61.1441C33.8649 60.4889 33.2801 59.5862 33.0169 58.5711L29.3688 44.5H15.1744C12.8641 44.5 10.8338 42.9685 10.1991 40.7471C9.90411 39.7147 9.93762 38.6161 10.295 37.6035L10.9182 35.8377C11.5047 34.176 12.4803 32.6787 13.7635 31.471L18.2932 27.2077C18.7164 26.8094 19.1916 26.4703 19.7059 26.1997L22.351 24.8075C23.4755 24.2157 24.8604 24.4849 25.6812 25.455C31.1763 31.9491 41.7672 28.8581 42.9064 20.4278L43.4525 16.3867C43.6243 15.115 44.227 13.9407 45.1599 13.0596L46.6341 11.6673ZM101.5 82V136H112.5C118.023 136 122.5 131.523 122.5 126V92C122.5 86.4771 118.023 82 112.5 82H101.5ZM18.4984 165C21.0056 166.884 24.1224 168 27.4999 168H76.4999C79.8773 168 82.9941 166.884 85.5013 165H18.4984Z"  />
</svg>
